<svg xmlns="http://www.w3.org/2000/svg" xmlns:xlink="http://www.w3.org/1999/xlink" width="500" zoomAndPan="magnify" viewBox="0 0 375 374.999991" height="500" preserveAspectRatio="xMidYMid meet" version="1.2"><defs><clipPath id="a9ed0a5d0f"><path d="M 45 70.703125 L 333 70.703125 L 333 303.953125 L 45 303.953125 Z M 45 70.703125 "/></clipPath></defs><g id="6436562c6e"><rect x="0" width="375" y="0" height="374.999991" style="fill:#ffffff;fill-opacity:1;stroke:none;"/><rect x="0" width="375" y="0" height="374.999991" style="fill:#000000;fill-opacity:1;stroke:none;"/><g clip-rule="nonzero" clip-path="url(#a9ed0a5d0f)"><path style=" stroke:none;fill-rule:nonzero;fill:#ffffff;fill-opacity:1;" d="M 330.546875 274.550781 C 335.128906 285 330.546875 297.414062 320.082031 301.992188 C 317.464844 303.296875 314.515625 303.949219 311.570312 303.949219 C 303.71875 303.949219 296.191406 299.378906 292.59375 291.859375 L 219.953125 132.121094 C 214.394531 120.03125 201.960938 112.519531 188.871094 112.519531 C 175.460938 112.519531 163.351562 120.03125 157.792969 132.121094 L 84.828125 291.859375 C 80.25 302.316406 67.8125 306.886719 57.347656 301.992188 C 46.875 297.414062 42.289062 285 47.199219 274.550781 L 119.832031 115.132812 C 132.269531 88.34375 159.097656 70.703125 188.871094 70.703125 C 218.320312 70.703125 245.480469 88.34375 257.582031 115.132812 Z M 330.546875 274.550781 "/></g><path style=" stroke:none;fill-rule:nonzero;fill:#45c6f5;fill-opacity:1;" d="M 151.570312 228.8125 C 151.570312 249.394531 168.265625 266.058594 188.875 266.058594 C 209.484375 266.058594 226.171875 249.394531 226.171875 228.8125 C 226.171875 208.234375 209.484375 191.574219 188.875 191.574219 C 168.265625 191.574219 151.570312 208.234375 151.570312 228.8125 "/></g></svg>