<svg xmlns="http://www.w3.org/2000/svg" xmlns:xlink="http://www.w3.org/1999/xlink" width="180" zoomAndPan="magnify" viewBox="0 0 135 30.000001" height="40" preserveAspectRatio="xMidYMid meet" version="1.2"><defs><clipPath id="7f9185c242"><path d="M 7.519531 7.1875 L 24.304688 7.1875 L 24.304688 23.152344 L 7.519531 23.152344 Z M 7.519531 7.1875 "/></clipPath><clipPath id="c6c2dcb7d2"><path d="M 25.535156 7.1875 L 45.59375 7.1875 L 45.59375 23.152344 L 25.535156 23.152344 Z M 25.535156 7.1875 "/></clipPath><clipPath id="18f8a1e0b0"><path d="M 47.234375 7.1875 L 64.429688 7.1875 L 64.429688 23.152344 L 47.234375 23.152344 Z M 47.234375 7.1875 "/></clipPath><clipPath id="83df6f47ee"><path d="M 66.066406 7.1875 L 83 7.1875 L 83 23.152344 L 66.066406 23.152344 Z M 66.066406 7.1875 "/></clipPath><clipPath id="f4c760ebdd"><path d="M 84.898438 7.1875 L 103.324219 7.1875 L 103.324219 23.152344 L 84.898438 23.152344 Z M 84.898438 7.1875 "/></clipPath><clipPath id="d438c2b7bc"><path d="M 105.371094 7.1875 L 108.644531 7.1875 L 108.644531 23.152344 L 105.371094 23.152344 Z M 105.371094 7.1875 "/></clipPath><clipPath id="3be34aec33"><path d="M 110.28125 7.1875 L 127.480469 7.1875 L 127.480469 23.152344 L 110.28125 23.152344 Z M 110.28125 7.1875 "/></clipPath></defs><g id="a38383123a"><g clip-rule="nonzero" clip-path="url(#7f9185c242)"><path style=" stroke:none;fill-rule:nonzero;fill:#ffffff;fill-opacity:1;" d="M 10.441406 15.175781 C 10.441406 18.355469 12.699219 20.324219 16.304688 20.324219 L 17.421875 20.324219 C 19.28125 20.324219 20.800781 19.808594 21.832031 18.828125 C 22.414062 18.289062 23.308594 18.289062 23.847656 18.871094 C 24.382812 19.429688 24.382812 20.324219 23.800781 20.886719 C 22.234375 22.386719 20.042969 23.167969 17.421875 23.167969 L 16.304688 23.167969 C 13.664062 23.167969 11.445312 22.363281 9.878906 20.839844 C 9.140625 20.125 8.558594 19.25 8.179688 18.265625 C 7.796875 17.304688 7.597656 16.273438 7.597656 15.175781 C 7.597656 14.105469 7.796875 13.050781 8.179688 12.109375 C 8.558594 11.125 9.140625 10.253906 9.878906 9.515625 C 11.445312 7.992188 13.664062 7.1875 16.304688 7.1875 L 17.421875 7.1875 C 20.066406 7.1875 22.28125 7.992188 23.847656 9.515625 C 24.40625 10.074219 24.40625 10.96875 23.871094 11.527344 C 23.332031 12.089844 22.414062 12.109375 21.855469 11.550781 C 20.824219 10.566406 19.304688 10.027344 17.421875 10.027344 L 16.304688 10.027344 C 12.699219 10.027344 10.441406 12.023438 10.441406 15.175781 "/></g><g clip-rule="nonzero" clip-path="url(#c6c2dcb7d2)"><path style=" stroke:none;fill-rule:nonzero;fill:#ffffff;fill-opacity:1;" d="M 45.15625 21.152344 C 45.46875 21.871094 45.15625 22.722656 44.441406 23.035156 C 44.261719 23.125 44.058594 23.167969 43.859375 23.167969 C 43.320312 23.167969 42.804688 22.855469 42.558594 22.339844 L 37.589844 11.394531 C 37.210938 10.566406 36.359375 10.050781 35.464844 10.050781 C 34.546875 10.050781 33.71875 10.566406 33.339844 11.394531 L 28.347656 22.339844 C 28.035156 23.058594 27.183594 23.371094 26.464844 23.035156 C 25.75 22.722656 25.4375 21.871094 25.773438 21.152344 L 30.742188 10.230469 C 31.59375 8.394531 33.429688 7.1875 35.464844 7.1875 C 37.480469 7.1875 39.335938 8.394531 40.164062 10.230469 Z M 45.15625 21.152344 "/></g><path style=" stroke:none;fill-rule:nonzero;fill:#00bcd4;fill-opacity:1;" d="M 32.914062 18.019531 C 32.914062 19.429688 34.054688 20.570312 35.464844 20.570312 C 36.875 20.570312 38.015625 19.429688 38.015625 18.019531 C 38.015625 16.609375 36.875 15.46875 35.464844 15.46875 C 34.054688 15.46875 32.914062 16.609375 32.914062 18.019531 "/><g clip-rule="nonzero" clip-path="url(#18f8a1e0b0)"><path style=" stroke:none;fill-rule:nonzero;fill:#ffffff;fill-opacity:1;" d="M 64.339844 12.605469 C 64.339844 14.058594 63.78125 15.402344 62.75 16.429688 C 61.742188 17.4375 60.378906 18.019531 58.925781 18.019531 L 50.375 18.019531 L 50.375 21.734375 C 50.375 22.542969 49.746094 23.167969 48.964844 23.167969 C 48.15625 23.167969 47.53125 22.542969 47.53125 21.734375 L 47.53125 16.585938 C 47.53125 15.804688 48.15625 15.15625 48.964844 15.15625 L 58.925781 15.15625 C 60.332031 15.15625 61.496094 14.015625 61.496094 12.605469 C 61.496094 11.191406 60.332031 10.027344 58.925781 10.027344 L 48.964844 10.027344 C 48.15625 10.027344 47.53125 9.402344 47.53125 8.621094 C 47.53125 7.835938 48.15625 7.1875 48.964844 7.1875 L 58.925781 7.1875 C 60.378906 7.1875 61.742188 7.769531 62.75 8.773438 C 63.78125 9.804688 64.339844 11.148438 64.339844 12.605469 "/></g><g clip-rule="nonzero" clip-path="url(#83df6f47ee)"><path style=" stroke:none;fill-rule:nonzero;fill:#ffffff;fill-opacity:1;" d="M 82.941406 8.621094 C 82.941406 9.402344 82.316406 10.027344 81.53125 10.027344 L 75.957031 10.027344 L 75.957031 21.734375 C 75.957031 22.542969 75.332031 23.167969 74.550781 23.167969 C 73.765625 23.167969 73.117188 22.542969 73.117188 21.734375 L 73.117188 10.027344 L 67.566406 10.027344 C 66.78125 10.027344 66.132812 9.402344 66.132812 8.621094 C 66.132812 7.835938 66.78125 7.1875 67.566406 7.1875 L 81.53125 7.1875 C 82.316406 7.1875 82.941406 7.835938 82.941406 8.621094 "/></g><g clip-rule="nonzero" clip-path="url(#f4c760ebdd)"><path style=" stroke:none;fill-rule:nonzero;fill:#ffffff;fill-opacity:1;" d="M 103.042969 21.734375 C 103.042969 22.542969 102.394531 23.167969 101.609375 23.167969 L 99.328125 23.167969 C 98.921875 23.167969 98.542969 23.011719 98.277344 22.722656 L 93.933594 18.019531 L 87.800781 18.019531 L 87.800781 21.734375 C 87.800781 22.542969 87.152344 23.167969 86.367188 23.167969 C 85.582031 23.167969 84.957031 22.542969 84.957031 21.734375 L 84.957031 16.585938 C 84.957031 15.804688 85.582031 15.15625 86.367188 15.15625 L 96.351562 15.15625 C 97.761719 15.15625 98.921875 14.015625 98.921875 12.605469 C 98.921875 11.191406 97.761719 10.027344 96.351562 10.027344 L 86.367188 10.027344 C 85.582031 10.027344 84.957031 9.402344 84.957031 8.621094 C 84.957031 7.835938 85.582031 7.1875 86.367188 7.1875 L 96.351562 7.1875 C 97.804688 7.1875 99.148438 7.769531 100.175781 8.777344 C 101.207031 9.804688 101.765625 11.148438 101.765625 12.605469 C 101.765625 14.058594 101.207031 15.402344 100.175781 16.429688 C 99.484375 17.125 98.609375 17.617188 97.671875 17.839844 L 99.953125 20.324219 L 101.609375 20.324219 C 102.394531 20.324219 103.042969 20.953125 103.042969 21.734375 "/></g><g clip-rule="nonzero" clip-path="url(#d438c2b7bc)"><path style=" stroke:none;fill-rule:nonzero;fill:#ffffff;fill-opacity:1;" d="M 108.347656 8.621094 L 108.347656 21.734375 C 108.347656 22.542969 107.699219 23.167969 106.917969 23.167969 C 106.132812 23.167969 105.507812 22.542969 105.507812 21.734375 L 105.507812 8.621094 C 105.507812 7.835938 106.132812 7.1875 106.917969 7.1875 C 107.699219 7.1875 108.347656 7.835938 108.347656 8.621094 "/></g><g clip-rule="nonzero" clip-path="url(#3be34aec33)"><path style=" stroke:none;fill-rule:nonzero;fill:#ffffff;fill-opacity:1;" d="M 127.398438 8.621094 C 127.398438 9.402344 126.769531 10.027344 125.988281 10.027344 L 120.414062 10.027344 L 120.414062 21.734375 C 120.414062 22.542969 119.789062 23.167969 119.003906 23.167969 C 118.21875 23.167969 117.570312 22.542969 117.570312 21.734375 L 117.570312 10.027344 L 112.019531 10.027344 C 111.238281 10.027344 110.589844 9.402344 110.589844 8.621094 C 110.589844 7.835938 111.238281 7.1875 112.019531 7.1875 L 125.988281 7.1875 C 126.769531 7.1875 127.398438 7.835938 127.398438 8.621094 "/></g></g></svg>